<?xml version="1.0" encoding="utf-8"?>
<!-- Generator: Adobe Illustrator 25.1.0, SVG Export Plug-In . SVG Version: 6.00 Build 0)  -->
<svg version="1.1" id="Ebene_1" xmlns="http://www.w3.org/2000/svg" xmlns:xlink="http://www.w3.org/1999/xlink" x="0px" y="0px"
	 viewBox="0 0 756.9 258.6" style="enable-background:new 0 0 756.9 258.6;" xml:space="preserve">
<style type="text/css">
	.st0{fill:#020203;}
	.st1{fill:none;stroke:#020203;stroke-width:14;stroke-miterlimit:10;}
	.st2{stroke:#010202;stroke-width:0.5;stroke-miterlimit:10;}
</style>
<path class="st0" d="M237.3,42.5h12.8c8.1,0,12,4.5,12,12.7v26c0,8.2-4,12.7-12,12.7h-12.8V42.5z M245.4,49.9v36.7h4.6
	c2.6,0,4.1-1.3,4.1-5V54.9c0-3.7-1.5-5-4.1-5H245.4z"/>
<path class="st0" d="M267.3,42.5h8.1v51.4h-8.1V42.5z"/>
<path class="st0" d="M289.3,64.2h11.1v7.3h-11.1v15.1h14v7.3h-22V42.5h22v7.3h-14V64.2z"/>
<g>
	<path class="st0" d="M373.9,205.7c-1.4-4.2-2.3-6.8-2.3-20v-25.6c0-15.1-5.1-20.7-16.8-20.7h-8.9v66.4h-25.6V42.5H359
		c26.6,0,38,12.4,38,37.5v12.8c0,16.8-5.4,27.5-16.8,32.9v0.5c12.8,5.4,17,17.5,17,34.5v25.2c0,7.9,0.2,13.7,2.8,19.8H373.9z
		 M346,65.8v50.1h10c9.6,0,15.4-4.2,15.4-17.2V82.6c0-11.7-4-16.8-13-16.8H346z"/>
	<path class="st0" d="M414,42.5h25.6v163.1H414V42.5z"/>
	<path class="st0" d="M481.6,87.5h-0.5v118.1H458V42.5h32.2l25.9,97.6h0.5V42.5h22.7v163.1H513L481.6,87.5z"/>
	<path class="st0" d="M596.2,116.6h35.9v51.7c0,26.1-13,41-38.2,41s-38.2-14.9-38.2-41V83.6c0-26.1,13-41,38.2-41s38.2,14.9,38.2,41
		v15.8h-24.2V81.9c0-11.7-5.1-16.1-13.3-16.1s-13.3,4.4-13.3,16.1V170c0,11.7,5.1,15.8,13.3,15.8s13.3-4.2,13.3-15.8v-30.1h-11.7
		V116.6z"/>
	<path class="st0" d="M674.2,111.3h35.2v23.3h-35.2v47.8h44.3v23.3h-69.9V42.5h69.9v23.3h-44.3V111.3z"/>
</g>
<rect x="168.7" y="43.9" class="st0" width="13.6" height="15.5"/>
<circle class="st1" cx="78" cy="127.4" r="69.7"/>
<rect x="71.9" y="42.3" class="st0" width="13.7" height="15"/>
<rect x="73.7" y="1.3" class="st0" width="10.1" height="41.4"/>
<rect x="170.4" y="1.4" class="st0" width="10.1" height="43.6"/>
<circle class="st1" cx="174.3" cy="138.8" r="77.8"/>
<g>
	<path class="st0" d="M439.6,234.2v1.1c0,3-0.9,4.9-3,5.9v0.1c2.5,1,3.4,3.2,3.4,6.3v2.4c0,4.5-2.4,7-7,7h-7.3v-29.4h7
		C437.5,227.4,439.6,229.7,439.6,234.2z M430.4,231.6v7.8h1.8c1.7,0,2.8-0.8,2.8-3.1v-1.6c0-2.1-0.7-3-2.4-3L430.4,231.6
		L430.4,231.6z M430.4,243.6v9h2.6c1.6,0,2.4-0.7,2.4-2.9v-2.6c0-2.7-0.9-3.6-3-3.6h-2V243.6z"/>
	<path class="st0" d="M442.4,234.5c0-4.7,2.5-7.4,7-7.4s7,2.7,7,7.4v15.3c0,4.7-2.5,7.4-7,7.4s-7-2.7-7-7.4V234.5z M447,250.1
		c0,2.1,0.9,2.9,2.4,2.9s2.4-0.8,2.4-2.9v-15.9c0-2.1-0.9-2.9-2.4-2.9s-2.4,0.8-2.4,2.9V250.1z"/>
	<path class="st0" d="M459.4,227.4h7.3c4.6,0,6.9,2.6,6.9,7.3v14.9c0,4.7-2.3,7.3-6.9,7.3h-7.3V227.4z M464.1,231.6v21h2.6
		c1.5,0,2.4-0.8,2.4-2.9v-15.3c0-2.1-0.9-2.9-2.4-2.9L464.1,231.6L464.1,231.6z"/>
	<path class="st0" d="M480.3,247.1l-5.8-19.7h4.8l3.5,13.4h0.1l3.5-13.4h4.4l-5.8,19.7v9.7h-4.7V247.1z"/>
	<path class="st0" d="M502.9,241.2L502.9,241.2l-1.7,15.7h-6.3l-3.3-29.4h4.5l2.4,23.2h0.1l2.2-23.2h4.5l2.3,23.4h0.1l2.4-23.4h4
		l-3.3,29.4h-6.1L502.9,241.2z"/>
	<path class="st0" d="M515.8,234.5c0-4.7,2.5-7.4,7-7.4s7,2.7,7,7.4v15.3c0,4.7-2.5,7.4-7,7.4s-7-2.7-7-7.4V234.5z M520.5,250.1
		c0,2.1,0.9,2.9,2.4,2.9s2.4-0.8,2.4-2.9v-15.9c0-2.1-0.9-2.9-2.4-2.9s-2.4,0.8-2.4,2.9V250.1z"/>
	<path class="st0" d="M542.5,256.8c-0.3-0.8-0.4-1.2-0.4-3.6v-4.6c0-2.7-0.9-3.7-3-3.7h-1.6v12h-4.6v-29.4h7c4.8,0,6.8,2.2,6.8,6.8
		v2.3c0,3-1,5-3,5.9v0.1c2.3,1,3.1,3.2,3.1,6.2v4.5c0,1.4,0,2.5,0.5,3.6h-4.8V256.8z M537.5,231.6v9h1.8c1.7,0,2.8-0.8,2.8-3.1v-2.9
		c0-2.1-0.7-3-2.4-3H537.5z"/>
	<path class="st0" d="M555.8,245.1l-1.4,2.7v9h-4.6v-29.4h4.6v12.7h0.1l6-12.7h4.6l-6.4,13.1l6.4,16.3h-4.8L555.8,245.1z"/>
	<path class="st0" d="M566.4,234.5c0-4.7,2.5-7.4,7-7.4s7,2.7,7,7.4v15.3c0,4.7-2.5,7.4-7,7.4s-7-2.7-7-7.4V234.5z M571.1,250.1
		c0,2.1,0.9,2.9,2.4,2.9s2.4-0.8,2.4-2.9v-15.9c0-2.1-0.9-2.9-2.4-2.9s-2.4,0.8-2.4,2.9V250.1z"/>
	<path class="st0" d="M587.9,227.4v22.7c0,2.1,0.9,2.9,2.4,2.9s2.4-0.8,2.4-2.9v-22.7h4.4v22.4c0,4.7-2.4,7.4-6.9,7.4
		s-6.9-2.7-6.9-7.4v-22.4H587.9z"/>
	<path class="st0" d="M598.8,227.4h14.3v4.2h-4.8v25.2h-4.6v-25.2h-4.8v-4.2H598.8z"/>
</g>
<g>
	<path class="st2" d="M742.9,206.2c-7,0-12.6-5.6-12.6-12.6s5.6-12.7,12.6-12.6c7,0,12.6,5.7,12.6,12.6
		C755.5,200.5,749.9,206.2,742.9,206.2z M742.9,205.3c6.5,0,11.8-5.2,11.7-11.8c0-6.4-5.3-11.7-11.7-11.7c-6.5,0-11.8,5.3-11.7,11.8
		C731.2,200.1,736.4,205.3,742.9,205.3z"/>
	<path class="st2" d="M740.6,195c0,1.8,0,3.6,0,5.4c-1.2,0-2.4,0-3.6,0c0-4.7,0-9.4,0-14.2h0.1c1.9,0,3.7,0,5.6,0
		c0.8,0,1.7,0.1,2.5,0.3c0.5,0.1,1,0.3,1.5,0.6c0.6,0.4,1,1,1.2,1.8c0.2,0.6,0.2,1.2,0.1,1.8c-0.1,0.8-0.4,1.6-1.1,2.2
		c-0.4,0.3-0.8,0.6-1.3,0.8c-0.1,0-0.2,0.1-0.4,0.1c0.1,0,0.2,0.1,0.3,0.1c0.5,0.2,0.9,0.5,1.2,0.9c0.4,0.4,0.7,0.9,0.9,1.5
		c0.6,1.1,1.1,2.2,1.7,3.3c0.1,0.3,0.3,0.5,0.4,0.8c0,0,0,0-0.1,0c-1.2,0-2.5,0-3.7,0c-0.1,0-0.1,0-0.1-0.1c-0.5-1-1-2.1-1.5-3.1
		c-0.2-0.4-0.4-0.7-0.6-1c-0.2-0.3-0.4-0.6-0.8-0.8c-0.4-0.2-0.7-0.3-1.2-0.3C741.4,195,741,195,740.6,195L740.6,195z M740.6,192.5
		L740.6,192.5c0.6,0,1.1,0,1.6,0c0.3,0,0.6,0,1-0.1c0.5-0.1,0.8-0.4,1-0.9s0.2-1.1,0-1.6c-0.1-0.4-0.4-0.7-0.9-0.9
		c-0.3-0.1-0.7-0.2-1.1-0.2c-0.5,0-1.1,0-1.6,0h-0.1C740.6,190.1,740.6,191.3,740.6,192.5z"/>
</g>
</svg>
