<svg width="255" height="27" viewBox="0 0 255 27" fill="none" xmlns="http://www.w3.org/2000/svg">
<path d="M10.8018 21.4621H9.5928V27.0001H0.5448V0.870117H10.8018C14.9358 0.870117 17.9388 1.58512 19.8108 3.01512C21.7088 4.44512 22.6578 7.13612 22.6578 11.0881C22.6578 15.0141 21.7088 17.7311 19.8108 19.2391C17.9128 20.7211 14.9098 21.4621 10.8018 21.4621ZM9.5928 14.3251H10.4118C11.5298 14.3251 12.3228 14.0781 12.7908 13.5841C13.2848 13.0901 13.5318 12.2451 13.5318 11.0491C13.5318 9.85312 13.2978 9.04712 12.8298 8.63112C12.3878 8.21512 11.5818 8.00712 10.4118 8.00712H9.5928V14.3251Z" fill="#8998A5"/>
<path d="M44.4317 27.0001V17.8741H39.3227V27.0001H30.2747V0.870117H39.3227V10.5031H44.4317V0.870117H53.4797V27.0001H44.4317Z" fill="#8998A5"/>
<path d="M61.6803 27.0001V0.870117H70.5723L76.5783 10.7761H77.1244V0.870117H86.1723V27.0001H77.2413L71.3133 16.3531H70.7283V27.0001H61.6803Z" fill="#8998A5"/>
<path d="M93.5619 8.24112V0.870117H113.062V8.24112H107.992V27.0001H98.9439V8.24112H93.5619Z" fill="#8998A5"/>
<path d="M120.455 27.0001V0.870117H133.91L135.938 10.8541L137.615 0.870117H151.46V27.0001H142.412V13.5451H141.983L139.721 26.7271H132.155L129.932 13.5451H129.503V27.0001H120.455Z" fill="#8998A5"/>
<path d="M159.551 27.0001V19.2391H168.443V27.0001H159.551Z" fill="#8998A5"/>
<path d="M184.247 0.870117L186.626 8.04612L189.668 0.870117H198.56L192.905 13.3111L198.209 27.0001H188.927L186.626 20.0581L184.247 27.0001H175.043L180.62 14.4811L175.043 0.870117H184.247Z" fill="#8998A5"/>
<path d="M219.932 27.0001H210.884V18.8101L203.435 0.870117H213.029L215.486 8.55312L218.021 0.870117H227.576L219.932 18.8101V27.0001Z" fill="#8998A5"/>
<path d="M233.537 8.24112V0.870117H254.207V8.24112L245.744 18.9661V19.6291H254.207V27.0001H233.537V19.9801L242.195 8.90412V8.24112H233.537Z" fill="#8998A5"/>
</svg>
