<?xml version="1.0" encoding="UTF-8"?>
<svg width="48px" height="48px" viewBox="0 0 48 48" version="1.1" xmlns="http://www.w3.org/2000/svg" xmlns:xlink="http://www.w3.org/1999/xlink">
    <!-- Generator: Sketch 63.1 (92452) - https://sketch.com -->
    <title>assets/Logo</title>
    <desc>Created with Sketch.</desc>
    <g id="assets/Logo" stroke="none" stroke-width="1" fill="none" fill-rule="evenodd">
        <polygon id="Fill-24" fill="#000000" points="17.585217 26.8735937 20.3036714 26.8735937 21.6497481 31.7022054 23.0895645 26.8735937 25.4725114 26.8735937 22.9148983 33.7597604 20.1563178 33.7597604"></polygon>
        <polygon id="Fill-25" fill="#000000" points="26.3470228 26.8735937 29.0654773 26.8735937 30.4108795 31.7022054 31.8510332 26.8735937 34.2336428 26.8735937 31.6763669 33.7597604 28.9174493 33.7597604"></polygon>
        <path d="M37.0731497,31.522987 C37.0731497,31.6474114 37.0731497,31.908062 37.1810517,32.1410628 C37.2751287,32.3599014 37.4905954,32.5659267 37.9208543,32.5659267 C38.5001529,32.5659267 38.6883069,32.1683755 38.6883069,31.8669244 C38.6883069,31.3864236 38.2981739,31.2491858 37.7323631,31.0984603 L36.359311,30.7005719 C35.9425398,30.590984 34.71819,30.247721 34.71819,28.8352172 C34.71819,28.1493655 35.0813474,27.5731017 35.5250941,27.2719879 C36.1178804,26.8464496 36.9251218,26.6818992 37.9208543,26.6818992 C39.3744957,26.6818992 40.8955759,27.0794504 41.0028034,28.9997676 L38.6073804,28.9997676 C38.6073804,28.7937424 38.6073804,28.5337662 38.5133034,28.3277409 C38.4054015,28.1085651 38.2172475,27.9575024 37.8132896,27.9575024 C37.4228195,27.9575024 37.0599992,28.1358778 37.0599992,28.5610788 C37.0599992,28.9589672 37.341893,29.1100299 37.7458509,29.2192806 L39.5494992,29.7267569 C40.1952248,29.9051323 41.1376808,30.2750337 41.1376808,31.6197615 C41.1376808,33.9511178 38.4859907,33.9511178 37.894216,33.9511178 C36.5218383,33.9511178 34.5431865,33.7454297 34.5698248,31.522987 L37.0731497,31.522987 Z" id="Fill-26" fill="#000000"></path>
        <path d="M6.72795551,24.5447664 C6.72795551,33.7241865 14.0551714,41.1920121 23.0619484,41.1920121 C25.1724428,41.1920121 27.2266259,40.787717 29.1668376,39.9895799 L27.9708121,36.9686629 C26.4123035,37.6093306 24.7607295,37.9343852 23.0619484,37.9343852 C15.8176821,37.9343852 9.92421319,31.9279564 9.92421319,24.5447664 C9.92421319,17.1619136 15.8176821,11.1551477 23.0619484,11.1551477 C30.3058775,11.1551477 36.1990092,17.1619136 36.1990092,24.5447664 L36.1983348,24.7086425 L39.3966156,24.7052706 L39.3956041,24.5447664 C39.3956041,15.3653464 32.0683882,7.89752075 23.0619484,7.89752075 C14.0551714,7.89752075 6.72795551,15.3653464 6.72795551,24.5447664" id="Fill-27" fill="#EC632B"></path>
    </g>
</svg>