<?xml version="1.0" encoding="utf-8"?>
<!-- Generator: Adobe Illustrator 24.0.3, SVG Export Plug-In . SVG Version: 6.00 Build 0)  -->
<svg version="1.1" xmlns="http://www.w3.org/2000/svg" xmlns:xlink="http://www.w3.org/1999/xlink" x="0px" y="0px"
	 viewBox="0 0 312.2 110.8" style="enable-background:new 0 0 312.2 110.8;" xml:space="preserve">
<style type="text/css">
	.st0{fill:#96143C;}
	.st1{fill:#E6508C;}
	.st2{fill:#FF82AA;}
	.st3{fill:#BE3269;}
	.st4{fill:#FFB4C8;}
	.st5{fill:#FFF0BE;}
	.st6{fill:#FFE67D;}
	.st7{fill:#FFD25F;}
	.st8{fill:#FFB45A;}
	.st9{fill:#FFBE96;}
	.st10{fill:#FFC8D2;}
	.st11{fill:#FFFFFF;}
	.st12{fill:#979797;}
	.st13{fill:none;stroke:#979797;stroke-width:0.15;stroke-miterlimit:10;}
</style>
<g id="Logo_x5F_final_x5F_RGB">
	<g>
		<path d="M29.6,41.5l0,17.4c0,11.2,9.7,14.4,18.3,8.4l3.5,7c-2.3,2-6.2,4.7-13.7,4.7c-8.8,0-17.6-6.7-17.6-18.5l0-18.9l-10.9,0
			l0-8.6l10.9,0l0-18.7l9.4-3.1l0,21.8l21.8,0l0,8.6L29.6,41.5z"/>
		<path d="M91.5,78.1l-0.8-6c-2.7,3.3-7.7,6.8-15.1,6.8c-9.3,0-16.9-6.8-16.9-15.5c0-13.6,17-17.9,30.9-11.6
			c-0.3-5.9-2.7-11.1-10.6-11.1c-3.8,0-8.1,1.2-10.9,2.9l-3.9-6.8c2.8-2.1,8.8-4.7,15.2-4.7c12.2,0,19.9,5.6,19.9,24l0,22L91.5,78.1
			z M68.1,63.7c0,3.4,3.8,6.6,8.4,6.6c6.6,0,12.7-5.2,13.5-10.8C82.9,55.9,68.1,55.6,68.1,63.7z"/>
		<path d="M120.1,38.9c2.6-3.9,7.8-6.8,13.8-6.8c11.9,0,20.5,10.5,20.5,23.4c0,12.9-8.6,23.4-20.5,23.4c-6,0-11.2-2.9-13.9-6.8
			l0,29.5l-9.4,0l0-68.7l9.4,0L120.1,38.9z M145.1,55.5c0-8.1-5.1-14.8-12.5-14.8c-7.4,0-12.5,6.7-12.5,14.8
			c0,8.1,5.1,14.8,12.5,14.8C140,70.3,145.1,63.5,145.1,55.5z"/>
		<path d="M170.6,38.9c2.6-3.9,7.8-6.8,13.8-6.8c11.9,0,20.5,10.5,20.5,23.4c0,12.9-8.6,23.4-20.5,23.4c-6,0-11.2-2.9-13.9-6.8
			l0,29.5l-9.4,0l0-68.7l9.4,0L170.6,38.9z M195.6,55.4c0-8.1-5.1-14.8-12.5-14.8s-12.5,6.7-12.5,14.8c0,8.1,5.1,14.8,12.5,14.8
			C190.6,70.3,195.6,63.5,195.6,55.4z"/>
		<path d="M252.8,59.3l-32,0c1.5,6.2,6.2,10.9,12.9,10.9c5.2,0,7.7-1.9,9.7-4.1l6.6,5.5c-3.5,4.3-9.2,7.2-16.4,7.2
			c-13.3,0-22.6-10.5-22.6-23.4c0-12.9,8.2-23.4,21.6-23.4c11.4,0,20.5,8.9,20.5,22.8C253.2,56.5,253.1,57.9,252.8,59.3z M221,50.7
			l22.4,0c-0.4-5.7-4.5-10.1-10.7-10.1C226.4,40.6,222.3,44.9,221,50.7z"/>
		<path d="M302.9,9.4V78l-9.3,0l0-6c-2.6,3.9-7.8,6.8-13.8,6.8c-11.9,0-20.5-10.5-20.5-23.4c0-12.9,8.6-23.4,20.5-23.4
			c6,0,11.2,2.9,13.9,6.8l0-29.5L302.9,9.4z M293.5,55.4c0-8.1-5.1-14.8-12.5-14.8c-7.4,0-12.5,6.7-12.5,14.8
			c0,8.1,5.1,14.8,12.5,14.8C288.5,70.2,293.5,63.5,293.5,55.4z"/>
	</g>
	<g>
		<rect x="57.5" y="82.7" class="st0" width="9.4" height="9.4"/>
	</g>
	<g>
		<rect x="76.2" y="82.7" class="st1" width="9.4" height="9.4"/>
	</g>
	<g>
		<rect x="85.5" y="82.7" class="st2" width="9.4" height="9.4"/>
	</g>
	<g>
		<rect x="94.9" y="82.7" class="st4" width="9.4" height="9.4"/>
	</g>
	<g>
		<rect x="66.8" y="82.7" class="st3" width="9.4" height="9.4"/>
	</g>
	<g>
		<rect x="195.9" y="82.7" class="st5" width="9.4" height="9.4"/>
	</g>
	<g>
		<rect x="186.6" y="82.7" class="st6" width="9.4" height="9.4"/>
	</g>
	<g>
		<rect x="177.2" y="82.7" class="st7" width="9.4" height="9.4"/>
	</g>
	<g>
		<rect x="145.4" y="82.7" class="st8" width="9.4" height="9.4"/>
	</g>
	<g>
		<rect x="136.1" y="82.7" class="st9" width="9.3" height="9.4"/>
	</g>
	<g>
		<rect x="126.7" y="82.7" class="st10" width="9.4" height="9.4"/>
	</g>
</g>
<g id="Hilfslinien_1_">
</g>
</svg>
