<svg width="325" height="400" viewBox="0 0 325 400" fill="none" xmlns="http://www.w3.org/2000/svg">
<g clip-path="url(#clip0)">
<path d="M78.62 301.59C172.96 301.59 224.56 223.43 224.56 155.65C224.56 153.43 224.56 151.22 224.41 149.02C234.448 141.759 243.114 132.769 250 122.47C240.639 126.618 230.708 129.338 220.54 130.54C231.247 124.13 239.261 114.048 243.09 102.17C233.022 108.145 222.006 112.355 210.52 114.62C202.787 106.397 192.559 100.952 181.419 99.1273C170.279 97.3027 158.848 99.2005 148.895 104.527C138.943 109.853 131.023 118.312 126.362 128.593C121.701 138.874 120.558 150.404 123.11 161.4C102.718 160.378 82.768 155.078 64.5564 145.846C46.3448 136.614 30.2784 123.655 17.4 107.81C10.8409 119.102 8.832 132.469 11.7823 145.19C14.7326 157.91 22.4202 169.028 33.28 176.28C25.1174 176.038 17.1328 173.836 10 169.86C10 170.07 10 170.29 10 170.51C10.0032 182.352 14.1026 193.829 21.6028 202.993C29.103 212.157 39.5423 218.445 51.15 220.79C43.5987 222.85 35.6758 223.151 27.99 221.67C31.2676 231.862 37.6486 240.774 46.2407 247.161C54.8328 253.548 65.2061 257.089 75.91 257.29C57.7474 271.564 35.3106 279.313 12.21 279.29C8.12903 279.282 4.05204 279.035 0 278.55C23.4564 293.603 50.7491 301.587 78.62 301.55" fill="#1DA1F2"/>
</g>
<defs>
<clipPath id="clip0">
<rect width="325" height="400" fill="white"/>
</clipPath>
</defs>
</svg>
